<?xml version="1.0" encoding="utf-8"?>
<svg viewBox="20.955 20.839 103.823 103.822" xmlns="http://www.w3.org/2000/svg">
  <path d="M124.778,72.75c0-28.624-23.287-51.911-51.912-51.911c-28.624,0-51.911,23.287-51.911,51.911s23.287,51.911,51.911,51.911  c7.221,0,14.088-1.505,20.338-4.182c3.322,2.61,7.496,4.182,12.039,4.182c10.771,0,19.535-8.764,19.535-19.535  c0-4.542-1.572-8.716-4.182-12.038C123.272,86.836,124.778,79.97,124.778,72.75z M45.28,113.113  c-12.865-8.821-21.325-23.621-21.325-40.363c0-26.97,21.941-48.911,48.911-48.911c26.971,0,48.912,21.941,48.912,48.911  c0,6.33-1.238,12.367-3.439,17.922c-3.471-3.146-8.055-5.081-13.096-5.081c-4.076,0-7.863,1.259-10.998,3.403  c-2.824-3.376-6.332-6.272-9.959-8.44c5.67-4.377,9.105-11.711,9.105-19.735c0-13.093-9.207-23.744-20.525-23.744  c-11.317,0-20.525,10.651-20.525,23.744c0,8.046,3.448,15.391,9.142,19.764c-8.379,5.022-16.202,13.849-16.202,23.592V113.113z   M72.866,121.661c-8.958,0-17.356-2.433-24.585-6.655v-10.832c0-9.319,8.412-17.833,16.75-22.137  c0.485-0.251,0.796-0.746,0.811-1.292c0.016-0.547-0.269-1.058-0.739-1.335c-6.021-3.534-9.761-10.658-9.761-18.592  c0-11.438,7.862-20.744,17.525-20.744c9.664,0,17.525,9.306,17.525,20.744c0,7.913-3.727,15.029-9.725,18.571  c-0.471,0.278-0.754,0.79-0.736,1.336c0.016,0.546,0.326,1.041,0.813,1.29c4.043,2.076,8.08,5.165,11.184,8.856  c-3.816,3.567-6.219,8.63-6.219,14.254c0,5.044,1.938,9.632,5.086,13.101C85.239,120.43,79.198,121.661,72.866,121.661z   M121.778,105.126c0,9.117-7.418,16.535-16.535,16.535s-16.535-7.418-16.535-16.535s7.418-16.535,16.535-16.535  S121.778,96.009,121.778,105.126z"/>
  <rect x="103.743" y="110.6" width="3" height="4.991"/>
  <rect x="103.743" y="94.661" width="3" height="12.563"/>
</svg>